# Blender v2.82 (sub 7) OBJ File: 'pilar.blend'
# www.blender.org
mtllib pilar_smol.mtl
o Cube_Cube.003
v -0.125000 -0.500000 0.125000
v -0.125000 0.500000 0.125000
v -0.125000 -0.500000 -0.125000
v -0.125000 0.500000 -0.125000
v 0.125000 -0.500000 0.125000
v 0.125000 0.500000 0.125000
v 0.125000 -0.500000 -0.125000
v 0.125000 0.500000 -0.125000
vt 0.375050 0.999950
vt 0.375050 0.000050
vt 0.625025 0.000050
vt 0.625025 0.999950
vt 0.375050 0.999950
vt 0.375050 0.000050
vt 0.625025 0.000050
vt 0.625025 0.999950
vt 0.375050 0.999950
vt 0.375050 0.000050
vt 0.625025 0.000050
vt 0.625025 0.999950
vt 0.375050 0.999950
vt 0.375050 0.000050
vt 0.625025 0.000050
vt 0.625025 0.999950
vt 0.624975 0.624975
vt 0.375025 0.624975
vt 0.375025 0.375025
vt 0.624975 0.375025
vt 0.623905 0.623905
vt 0.376095 0.623905
vt 0.376095 0.376095
vt 0.623905 0.376095
vn -1.0000 0.0000 0.0000
vn 0.0000 0.0000 -1.0000
vn 1.0000 0.0000 0.0000
vn 0.0000 0.0000 1.0000
vn 0.0000 -1.0000 0.0000
vn 0.0000 1.0000 0.0000
usemtl None
s off
f 1/1/1 2/2/1 4/3/1 3/4/1
f 3/5/2 4/6/2 8/7/2 7/8/2
f 7/9/3 8/10/3 6/11/3 5/12/3
f 5/13/4 6/14/4 2/15/4 1/16/4
f 3/17/5 7/18/5 5/19/5 1/20/5
f 8/21/6 4/22/6 2/23/6 6/24/6
