# Blender v2.82 (sub 7) OBJ File: 'pilar.blend'
# www.blender.org
mtllib pilar_slab1.mtl
o Cube_Cube.004
v -0.250000 0.000000 0.250000
v -0.250000 0.500000 0.250000
v -0.250000 0.000000 -0.250000
v -0.250000 0.500000 -0.250000
v 0.250000 0.000000 0.250000
v 0.250000 0.500000 0.250000
v 0.250000 0.000000 -0.250000
v 0.250000 0.500000 -0.250000
v -0.500000 -0.500000 0.500000
v -0.500000 0.000000 0.500000
v -0.500000 -0.500000 -0.500000
v -0.500000 0.000000 -0.500000
v 0.500000 -0.500000 0.500000
v 0.500000 0.000000 0.500000
v 0.500000 -0.500000 -0.500000
v 0.500000 0.000000 -0.500000
vt 0.250000 0.500000
vt 0.250000 -0.000000
vt 0.750000 0.000000
vt 0.750000 0.500000
vt 0.250000 0.500000
vt 0.250000 -0.000000
vt 0.750000 0.000000
vt 0.750000 0.500000
vt 0.250000 0.500000
vt 0.250000 -0.000000
vt 0.750000 0.000000
vt 0.750000 0.500000
vt 0.250000 0.500000
vt 0.250000 -0.000000
vt 0.750000 0.000000
vt 0.750000 0.500000
vt 0.250000 0.250000
vt 0.750000 0.250000
vt 0.750000 0.750000
vt 0.250000 0.750000
vt 0.999965 0.000035
vt 0.999965 0.499965
vt 0.000106 0.499965
vt 0.000106 0.000035
vt 0.999965 0.000035
vt 0.999965 0.499965
vt 0.000106 0.499965
vt 0.000106 0.000035
vt 0.000071 0.500000
vt 0.000071 0.000071
vt 0.999929 0.000071
vt 0.999929 0.500000
vt 0.000071 0.500000
vt 0.000071 0.000071
vt 0.999929 0.000071
vt 0.999929 0.500000
vt 0.000100 0.000100
vt 0.999900 0.000100
vt 0.999900 0.999900
vt 0.000100 0.999900
vt 0.250050 0.250050
vt 0.250050 0.749950
vt 0.749950 0.749950
vt 0.999900 0.999900
vt 0.000100 0.999900
vt 0.749950 0.250050
vt 0.999900 0.000100
vn -1.0000 0.0000 0.0000
vn 0.0000 0.0000 -1.0000
vn 1.0000 0.0000 0.0000
vn 0.0000 0.0000 1.0000
vn 0.0000 1.0000 0.0000
vn 0.0000 -1.0000 0.0000
usemtl None
s off
f 1/1/1 2/2/1 4/3/1 3/4/1
f 3/5/2 4/6/2 8/7/2 7/8/2
f 7/9/3 8/10/3 6/11/3 5/12/3
f 5/13/4 6/14/4 2/15/4 1/16/4
f 8/17/5 4/18/5 2/19/5 6/20/5
f 9/21/1 10/22/1 12/23/1 11/24/1
f 11/25/2 12/26/2 16/27/2 15/28/2
f 15/29/3 16/30/3 14/31/3 13/32/3
f 13/33/4 14/34/4 10/35/4 9/36/4
f 11/37/6 15/38/6 13/39/6 9/40/6
f 16/30/5 7/41/5 5/42/5 1/43/5 10/44/5 14/45/5
f 10/44/5 1/43/5 3/46/5 7/41/5 16/30/5 12/47/5
